<mxfile host="app.diagrams.net" agent="Mozilla/5.0 (X11; Ubuntu; Linux x86_64; rv:135.0) Gecko/20100101 Firefox/135.0" version="26.1.1">
  <diagram name="Page-1" id="ZpsPip6SqWItZNG1ySSo">
    <mxGraphModel dx="832" dy="1071" grid="1" gridSize="10" guides="1" tooltips="1" connect="1" arrows="1" fold="1" page="1" pageScale="1" pageWidth="850" pageHeight="1100" math="0" shadow="0">
      <root>
        <mxCell id="0" />
        <mxCell id="1" parent="0" />
        <mxCell id="yq3yHpw1mqcqgmIQFST--5" style="edgeStyle=orthogonalEdgeStyle;rounded=0;orthogonalLoop=1;jettySize=auto;html=1;entryX=0;entryY=0.5;entryDx=0;entryDy=0;strokeWidth=2;" edge="1" parent="1" source="yq3yHpw1mqcqgmIQFST--2" target="yq3yHpw1mqcqgmIQFST--4">
          <mxGeometry relative="1" as="geometry" />
        </mxCell>
        <mxCell id="yq3yHpw1mqcqgmIQFST--2" value="&lt;div&gt;&lt;font style=&quot;font-size: 18px;&quot;&gt;&lt;b&gt;Training Data&lt;/b&gt;&lt;/font&gt;&lt;/div&gt;&lt;div&gt;&lt;font size=&quot;3&quot;&gt;(noisy time-series)&lt;/font&gt;&lt;/div&gt;" style="rounded=1;whiteSpace=wrap;html=1;fillColor=#dae8fc;strokeColor=#6c8ebf;" vertex="1" parent="1">
          <mxGeometry x="80" y="280" width="240" height="120" as="geometry" />
        </mxCell>
        <mxCell id="yq3yHpw1mqcqgmIQFST--7" style="edgeStyle=orthogonalEdgeStyle;rounded=0;orthogonalLoop=1;jettySize=auto;html=1;entryX=0;entryY=0.5;entryDx=0;entryDy=0;strokeWidth=2;" edge="1" parent="1" source="yq3yHpw1mqcqgmIQFST--4" target="yq3yHpw1mqcqgmIQFST--6">
          <mxGeometry relative="1" as="geometry" />
        </mxCell>
        <mxCell id="yq3yHpw1mqcqgmIQFST--4" value="&lt;div&gt;&lt;font style=&quot;font-size: 18px;&quot;&gt;&lt;b&gt;Reservoir Computer (RC)&lt;/b&gt;&lt;/font&gt;&lt;/div&gt;&lt;div&gt;&lt;font size=&quot;3&quot;&gt;(i) trainable readout via ridge regression&lt;/font&gt;&lt;/div&gt;&lt;div&gt;&lt;font size=&quot;3&quot;&gt;(ii) learns next-step mapping:&lt;/font&gt;&lt;/div&gt;&lt;div&gt;&lt;font size=&quot;3&quot;&gt;x(t) --&amp;gt; x(t+1)&lt;/font&gt;&lt;/div&gt;" style="rounded=1;whiteSpace=wrap;html=1;fillColor=#f8cecc;strokeColor=#b85450;" vertex="1" parent="1">
          <mxGeometry x="400" y="280" width="280" height="120" as="geometry" />
        </mxCell>
        <mxCell id="yq3yHpw1mqcqgmIQFST--9" style="edgeStyle=orthogonalEdgeStyle;rounded=0;orthogonalLoop=1;jettySize=auto;html=1;entryX=0;entryY=0.5;entryDx=0;entryDy=0;strokeWidth=2;" edge="1" parent="1" source="yq3yHpw1mqcqgmIQFST--6" target="yq3yHpw1mqcqgmIQFST--8">
          <mxGeometry relative="1" as="geometry" />
        </mxCell>
        <mxCell id="yq3yHpw1mqcqgmIQFST--6" value="&lt;div&gt;&lt;font style=&quot;font-size: 18px;&quot;&gt;&lt;b&gt;Trained RC replaces the Process Model of UKF&lt;/b&gt;&lt;/font&gt;&lt;/div&gt;&lt;div&gt;&lt;font size=&quot;3&quot;&gt;(W_out captures the system dynamics)&lt;/font&gt;&lt;/div&gt;" style="rounded=1;whiteSpace=wrap;html=1;fillColor=#fff2cc;strokeColor=#d6b656;" vertex="1" parent="1">
          <mxGeometry x="760" y="280" width="240" height="120" as="geometry" />
        </mxCell>
        <mxCell id="yq3yHpw1mqcqgmIQFST--11" style="edgeStyle=orthogonalEdgeStyle;rounded=0;orthogonalLoop=1;jettySize=auto;html=1;entryX=0;entryY=0.5;entryDx=0;entryDy=0;strokeWidth=2;" edge="1" parent="1" source="yq3yHpw1mqcqgmIQFST--8" target="yq3yHpw1mqcqgmIQFST--10">
          <mxGeometry relative="1" as="geometry" />
        </mxCell>
        <mxCell id="yq3yHpw1mqcqgmIQFST--8" value="&lt;div&gt;&lt;font style=&quot;font-size: 18px;&quot;&gt;&lt;b&gt;Noisy Measurements&lt;/b&gt;&lt;/font&gt;&lt;/div&gt;&lt;div&gt;&lt;font size=&quot;3&quot;&gt;(testing data)&lt;/font&gt;&lt;/div&gt;" style="rounded=1;whiteSpace=wrap;html=1;fillColor=#dae8fc;strokeColor=#6c8ebf;" vertex="1" parent="1">
          <mxGeometry x="1080" y="280" width="240" height="120" as="geometry" />
        </mxCell>
        <mxCell id="yq3yHpw1mqcqgmIQFST--13" style="edgeStyle=orthogonalEdgeStyle;rounded=0;orthogonalLoop=1;jettySize=auto;html=1;entryX=0;entryY=0.5;entryDx=0;entryDy=0;strokeWidth=2;" edge="1" parent="1" source="yq3yHpw1mqcqgmIQFST--10" target="yq3yHpw1mqcqgmIQFST--12">
          <mxGeometry relative="1" as="geometry" />
        </mxCell>
        <mxCell id="yq3yHpw1mqcqgmIQFST--10" value="&lt;div&gt;&lt;font style=&quot;font-size: 18px;&quot;&gt;&lt;b&gt;Unscented Kalman Filter (UKF)&lt;/b&gt;&lt;/font&gt;&lt;/div&gt;&lt;div&gt;&lt;font size=&quot;3&quot;&gt;(i) predict using RC model&lt;/font&gt;&lt;/div&gt;&lt;div&gt;&lt;font size=&quot;3&quot;&gt;(ii) update with measurements&lt;/font&gt;&lt;/div&gt;" style="rounded=1;whiteSpace=wrap;html=1;fillColor=#e1d5e7;strokeColor=#9673a6;" vertex="1" parent="1">
          <mxGeometry x="1400" y="280" width="240" height="120" as="geometry" />
        </mxCell>
        <mxCell id="yq3yHpw1mqcqgmIQFST--12" value="&lt;div&gt;&lt;font style=&quot;font-size: 18px;&quot;&gt;&lt;b&gt;State Estimate&lt;/b&gt;&lt;/font&gt;&lt;/div&gt;&lt;div&gt;&lt;font size=&quot;3&quot;&gt;(next state estimate)&lt;/font&gt;&lt;/div&gt;" style="rounded=1;whiteSpace=wrap;html=1;fillColor=#ffe6cc;strokeColor=#d79b00;" vertex="1" parent="1">
          <mxGeometry x="1720" y="280" width="240" height="120" as="geometry" />
        </mxCell>
      </root>
    </mxGraphModel>
  </diagram>
</mxfile>
